<svg width="128" height="128" viewBox="0 0 128 128" fill="none" xmlns="http://www.w3.org/2000/svg">
<path d="M120.64 35.2271C119.209 34.0331 117.471 33.2653 115.625 33.0112C113.779 32.7571 111.899 33.027 110.199 33.7901L86.5791 44.2881L72.7417 19.3804C71.8757 17.8214 70.6085 16.5223 69.0715 15.6178C67.5345 14.7134 65.7836 14.2364 64.0002 14.2363C62.2168 14.2363 60.4658 14.7132 58.9287 15.6175C57.3917 16.5219 56.1244 17.8209 55.2583 19.3799L41.4209 44.2881L17.7964 33.7876C16.0951 33.0317 14.2165 32.7657 12.3722 33.0196C10.528 33.2735 8.79115 34.0372 7.35737 35.2247C5.92359 36.4122 4.84976 37.9764 4.25679 39.7411C3.66381 41.5058 3.57523 43.401 4.00102 45.2134L16.7232 99.3799C17.036 100.691 17.6096 101.925 18.4098 103.009C19.21 104.093 20.2205 105.005 21.3808 105.69C22.5411 106.375 23.8276 106.82 25.1634 106.997C26.4992 107.174 27.857 107.08 29.1558 106.721C51.9509 100.429 76.0245 100.426 98.8209 106.714C100.119 107.077 101.477 107.173 102.814 106.998C104.15 106.823 105.438 106.379 106.598 105.694C107.759 105.009 108.77 104.096 109.569 103.01C110.368 101.925 110.94 100.689 111.25 99.3774L123.995 45.2183C124.428 43.4058 124.343 41.5081 123.75 39.7415C123.157 37.9749 122.079 36.4106 120.64 35.2271ZM28.4053 96.6362L28.4043 96.6318L28.4058 96.6367L28.4053 96.6362ZM100.043 94.6162C76.4002 88.4591 51.5743 88.4613 27.9326 94.6226L16.6035 46.3897L38.2192 55.9966C40.5008 57.0231 43.0852 57.1526 45.4579 56.3592C47.8306 55.5658 49.8173 53.9078 51.0225 51.7153L64 28.355L76.9785 51.7163C78.1835 53.9088 80.1702 55.5669 82.5429 56.3601C84.9155 57.1534 87.5 57.0236 89.7813 55.9966L111.391 46.3921L100.043 94.6162Z" fill="#5EB1FF"/>
</svg>
