<svg width="442" height="109" viewBox="0 0 442 109" fill="none" xmlns="http://www.w3.org/2000/svg">
<path d="M115.72 86V79.52L118.36 79.28C119.907 79.12 120.68 78.3733 120.68 77.04V39.84L116.12 39.6V32.8H138.04C145.88 32.8 151.987 34.88 156.36 39.04C160.787 43.2 163 49.36 163 57.52C163 62.5867 162.333 67.0133 161 70.8C159.667 74.5333 157.853 77.4667 155.56 79.6C150.973 83.8667 145.267 86 138.44 86H115.72ZM130.44 40.56V78.32H138.6C143.187 78.32 146.76 76.6667 149.32 73.36C151.88 70.0533 153.16 65.2533 153.16 58.96C153.16 46.6933 147.96 40.56 137.56 40.56H130.44ZM198.283 84.48V78.4C195.35 82.56 191.03 84.64 185.323 84.64C177.056 84.64 172.923 80.0267 172.923 70.8V54.72C172.923 53.28 172.256 52.5333 170.923 52.48L168.363 52.32V45.76H182.443V68.72C182.443 71.5467 182.843 73.68 183.643 75.12C184.443 76.56 186.096 77.28 188.603 77.28C191.11 77.28 193.11 76.5067 194.603 74.96C196.15 73.4133 196.923 71.5467 196.923 69.36V54.88C196.923 53.9733 196.763 53.36 196.443 53.04C196.176 52.6667 195.67 52.48 194.923 52.48L192.363 52.32V45.76H206.443V84.48C206.443 90.9333 204.87 95.6533 201.723 98.64C198.63 101.627 193.91 103.12 187.563 103.12C181.27 103.12 176.363 102.24 172.843 100.48V89.36L180.443 88.72V92.56C180.443 94 181.11 94.96 182.443 95.44C183.776 95.9733 185.616 96.24 187.963 96.24C194.843 96.24 198.283 92.32 198.283 84.48ZM214.223 52.16V45.76H227.743V50.96C229.129 48.9867 230.969 47.44 233.263 46.32C235.556 45.1467 238.036 44.56 240.703 44.56C244.756 44.56 247.876 45.7333 250.063 48.08C252.303 50.3733 253.423 53.84 253.423 58.48V79.36L257.983 79.6V86H238.943V79.92L241.583 79.68C242.383 79.5733 242.969 79.36 243.343 79.04C243.716 78.6667 243.903 78 243.903 77.04V60.56C243.903 57.6267 243.449 55.4667 242.543 54.08C241.636 52.64 239.903 51.92 237.343 51.92C234.836 51.92 232.836 52.72 231.343 54.32C229.849 55.92 229.103 57.8133 229.103 60V79.36L233.663 79.6V86H214.623V79.92L217.263 79.68C218.063 79.5733 218.649 79.36 219.023 79.04C219.396 78.6667 219.583 78 219.583 77.04V54.88C219.583 53.28 218.916 52.4533 217.583 52.4L214.223 52.16ZM298.591 47.36V77.12C298.591 77.9733 298.725 78.56 298.991 78.88C299.311 79.2 299.845 79.3867 300.591 79.44L303.151 79.6V86H290.431V81.36L290.191 81.28C287.525 85.12 283.871 87.04 279.231 87.04C273.791 87.04 269.765 85.3067 267.151 81.84C264.538 78.3733 263.231 73.6267 263.231 67.6C263.231 60.3467 264.991 54.6933 268.511 50.64C272.031 46.5867 277.311 44.56 284.351 44.56C288.885 44.56 293.631 45.4933 298.591 47.36ZM289.311 73.28V52.56C287.818 51.8667 285.765 51.52 283.151 51.52C279.578 51.52 276.991 52.96 275.391 55.84C273.791 58.72 272.991 62.5333 272.991 67.28C272.991 75.92 275.765 80.24 281.311 80.24C283.658 80.24 285.578 79.5467 287.071 78.16C288.565 76.72 289.311 75.0933 289.311 73.28ZM329.022 51.84C327.742 51.36 326.195 51.12 324.382 51.12C322.569 51.12 321.102 51.5467 319.982 52.4C318.915 53.2 318.382 54.2133 318.382 55.44C318.382 56.6133 318.569 57.5467 318.942 58.24C319.369 58.88 320.009 59.44 320.862 59.92C322.195 60.6133 323.795 61.2267 325.662 61.76C327.529 62.24 328.915 62.64 329.822 62.96C330.729 63.2267 331.849 63.7067 333.182 64.4C334.569 65.0933 335.609 65.84 336.302 66.64C338.169 68.6133 339.102 71.1467 339.102 74.24C339.102 78.24 337.635 81.3867 334.702 83.68C331.822 85.92 328.142 87.04 323.662 87.04C317.155 87.04 312.249 86.2133 308.942 84.56V73.44L316.142 72.88V76.72C316.142 79.0667 318.382 80.24 322.862 80.24C327.342 80.24 329.582 78.6133 329.582 75.36C329.582 74.1867 329.182 73.2267 328.382 72.48C327.635 71.7333 326.889 71.2267 326.142 70.96C325.395 70.6933 324.489 70.4267 323.422 70.16C322.409 69.8933 321.395 69.6267 320.382 69.36C319.422 69.0933 318.355 68.7467 317.182 68.32C316.062 67.84 314.809 67.1733 313.422 66.32C310.702 64.56 309.342 61.6267 309.342 57.52C309.342 53.36 310.809 50.16 313.742 47.92C316.675 45.68 320.355 44.56 324.782 44.56C329.262 44.56 333.689 45.6267 338.062 47.76V57.36L330.862 57.92V54.56C330.862 53.2267 330.249 52.32 329.022 51.84ZM352.254 37.28H357.454V45.76H368.094L367.294 52.48H357.454V73.52C357.454 75.8667 357.881 77.52 358.734 78.48C359.588 79.3867 360.894 79.84 362.654 79.84C364.468 79.84 366.281 79.28 368.094 78.16L370.494 84.32C367.828 86.1867 364.441 87.12 360.334 87.12C357.934 87.12 355.908 86.8 354.254 86.16C352.601 85.5733 351.374 84.9067 350.574 84.16C349.774 83.4133 349.161 82.32 348.734 80.88C348.308 79.44 348.068 78.32 348.014 77.52C347.961 76.6667 347.934 75.44 347.934 73.84V52.48H342.254L343.054 46.64C345.561 46.4267 347.454 45.5467 348.734 44C350.014 42.4 351.188 40.16 352.254 37.28ZM402.971 84.48V78.4C400.037 82.56 395.717 84.64 390.011 84.64C381.744 84.64 377.611 80.0267 377.611 70.8V54.72C377.611 53.28 376.944 52.5333 375.611 52.48L373.051 52.32V45.76H387.131V68.72C387.131 71.5467 387.531 73.68 388.331 75.12C389.131 76.56 390.784 77.28 393.291 77.28C395.797 77.28 397.797 76.5067 399.291 74.96C400.837 73.4133 401.611 71.5467 401.611 69.36V54.88C401.611 53.9733 401.451 53.36 401.131 53.04C400.864 52.6667 400.357 52.48 399.611 52.48L397.051 52.32V45.76H411.131V84.48C411.131 90.9333 409.557 95.6533 406.411 98.64C403.317 101.627 398.597 103.12 392.251 103.12C385.957 103.12 381.051 102.24 377.531 100.48V89.36L385.131 88.72V92.56C385.131 94 385.797 94.96 387.131 95.44C388.464 95.9733 390.304 96.24 392.651 96.24C399.531 96.24 402.971 92.32 402.971 84.48Z" fill="#E0E1E5"/>
<g filter="url(#filter0_g_54_24)">
<g filter="url(#filter1_i_54_24)">
<path d="M95.4164 40.6537C94.4762 39.9408 93.3345 39.4823 92.1215 39.3306C90.9084 39.1789 89.6729 39.34 88.5557 39.7957L73.0355 46.0641L63.9431 31.1915C63.374 30.2606 62.5414 29.485 61.5314 28.9449C60.5214 28.4048 59.3709 28.12 58.1991 28.12C57.0272 28.12 55.8767 28.4047 54.8667 28.9447C53.8567 29.4847 53.024 30.2604 52.4549 31.1912L43.3624 46.0641L27.839 39.7942C26.7211 39.3428 25.4867 39.184 24.2748 39.3356C23.063 39.4872 21.9217 39.9432 20.9796 40.6523C20.0375 41.3614 19.3319 42.2953 18.9422 43.3491C18.5526 44.4028 18.4944 45.5345 18.7742 46.6166L27.1338 78.9598C27.3393 79.7425 27.7163 80.4794 28.2421 81.1268C28.7679 81.7742 29.4318 82.3187 30.1943 82.7278C30.9567 83.1369 31.802 83.4022 32.6798 83.508C33.5575 83.6138 34.4497 83.5578 35.3032 83.3434C50.2816 79.586 66.1002 79.5846 81.0794 83.3393C81.9325 83.5558 82.825 83.6134 83.7032 83.5087C84.5814 83.4039 85.4273 83.1391 86.19 82.7299C86.9528 82.3208 87.6167 81.7758 88.1419 81.1277C88.6672 80.4795 89.0429 79.7417 89.2465 78.9584L97.6209 46.6195C97.9057 45.5373 97.85 44.4042 97.4602 43.3493C97.0704 42.2945 96.3622 41.3604 95.4164 40.6537Z" fill="url(#paint0_linear_54_24)"/>
</g>
</g>
<defs>
<filter id="filter0_g_54_24" x="13.704" y="11.704" width="88.992" height="88.992" filterUnits="userSpaceOnUse" color-interpolation-filters="sRGB">
<feFlood flood-opacity="0" result="BackgroundImageFix"/>
<feBlend mode="normal" in="SourceGraphic" in2="BackgroundImageFix" result="shape"/>
<feTurbulence type="fractalNoise" baseFrequency="2.7777779102325439 2.7777779102325439" numOctaves="3" seed="4478" result="displacementX" />
<feTurbulence type="fractalNoise" baseFrequency="2.7777779102325439 2.7777779102325439" numOctaves="3" seed="4479" result="displacementY" />
<feColorMatrix in="displacementX" type="matrix" values="0 0 0 1 0  0 0 0 0 0  0 0 0 0 0  0 0 0 0 1" result="displacementXRed" />
<feColorMatrix in="displacementY" type="matrix" values="0 0 0 0 0  0 0 0 1 0  0 0 0 0 0  0 0 0 0 1" />
<feComposite in="displacementXRed" operator="arithmetic" k1="0" k2="1" k3="1" k4="0"/>
<feDisplacementMap in="shape" scale="2.5919997692108154" xChannelSelector="R" yChannelSelector="G" width="100%" height="100%" />
<feColorMatrix type="matrix" values="0 0 0 0 0  0 0 0 0 0  0 0 0 0 0  0 0 0 1 0" />
<feComponentTransfer result="sourceDisplacedAlpha">
<feFuncA type="gamma" exponent="0.2" />
</feComponentTransfer>
<feColorMatrix in="shape" type="matrix" values="0 0 0 0 0  0 0 0 0 0  0 0 0 0 0  0 0 0 1 0" />
<feComponentTransfer result="inputSourceAlpha">
<feFuncA type="gamma" exponent="0.2" />
</feComponentTransfer>
<feComposite in="sourceDisplacedAlpha" operator="arithmetic" k1="1" k2="0" k3="0" k4="0" result="displacementAlphasMultiplied"/>
<feComposite in="displacementAlphasMultiplied"  operator="arithmetic" k1="0" k2="0" k3="-0.5" k4="0.5" result="centeringAdjustment"/>
<feComposite in="displacementX" in2="displacementAlphasMultiplied" operator="arithmetic" k1="1" k2="0" k3="0" k4="0" />
<feComposite in="centeringAdjustment" operator="arithmetic" k1="0" k2="1" k3="1" k4="0" />
<feColorMatrix  type="matrix" values="0 0 0 1 0  0 0 0 0 0  0 0 0 0 0  0 0 0 0 1" result="displacementXFinal" />
<feComposite in="displacementY" in2="displacementAlphasMultiplied" operator="arithmetic" k1="1" k2="0" k3="0" k4="0" />
<feComposite in="centeringAdjustment" operator="arithmetic" k1="0" k2="1" k3="1" k4="0" />
<feColorMatrix  type="matrix" values="0 0 0 0 0  0 0 0 1 0  0 0 0 0 0  0 0 0 0 1" result="displacementYFinal" />
<feComposite in="displacementXFinal" in2="displacementYFinal" operator="arithmetic" k1="0" k2="1" k3="1" k4="0" />
<feComposite in2="displacementAlphasMultiplied" operator="in" result="displacementMap" />
<feFlood flood-color="rgb(127, 127, 127)" flood-opacity="1"/>
<feComposite in2="displacementAlphasMultiplied" operator="out" />
<feComposite in2="displacementMap" operator="over" result="displacementMapWithBg"/>
<feDisplacementMap in="shape" scale="2.5919997692108154" xChannelSelector="R" yChannelSelector="G" width="100%" height="100%" result="displacedImage" />
<feColorMatrix in="shape" type="matrix" values="1 0 0 0 0  0 1 0 0 0  0 0 1 0 0  0 0 0 127 0" result="imageOpaque" />
<feDisplacementMap in="imageOpaque" in2="displacementMapWithBg" scale="2.5919997692108154" xChannelSelector="R" yChannelSelector="G" width="100%" height="100%" result="displacedImageOpaque" />
<feColorMatrix in="displacedImage" type="matrix" values="0 0 0 1 0  0 0 0 0 0  0 0 0 0 0  0 0 0 127 0" result="displacedImageRed" />
<feColorMatrix in="shape" type="matrix" values="0 0 0 1 0  0 0 0 0 0  0 0 0 0 0  0 0 0 127 0" />
<feComposite in="displacedImageRed"  operator="atop" result="transparencyRedMap"/>
<feColorMatrix in="transparencyRedMap" type="matrix" values="0 0 0 0 0  0 0 0 0 0  0 0 0 0 0  1 0 0 0 0" result="transparencyAlphaMap" />
<feComposite in="displacedImageOpaque" in2="imageOpaque" operator="over" />
<feComposite in2="transparencyAlphaMap" operator="in" result="effect1_texture_54_24"/>
</filter>
<filter id="filter1_i_54_24" x="18.6" y="28.12" width="79.2" height="55.44" filterUnits="userSpaceOnUse" color-interpolation-filters="sRGB">
<feFlood flood-opacity="0" result="BackgroundImageFix"/>
<feBlend mode="normal" in="SourceGraphic" in2="BackgroundImageFix" result="shape"/>
<feColorMatrix in="SourceAlpha" type="matrix" values="0 0 0 0 0 0 0 0 0 0 0 0 0 0 0 0 0 0 127 0" result="hardAlpha"/>
<feOffset/>
<feGaussianBlur stdDeviation="16.812"/>
<feComposite in2="hardAlpha" operator="arithmetic" k2="-1" k3="1"/>
<feColorMatrix type="matrix" values="0 0 0 0 1 0 0 0 0 1 0 0 0 0 1 0 0 0 0.26 0"/>
<feBlend mode="normal" in2="shape" result="effect1_innerShadow_54_24"/>
</filter>
<linearGradient id="paint0_linear_54_24" x1="18.6" y1="40.5954" x2="91.0039" y2="83.56" gradientUnits="userSpaceOnUse">
<stop stop-color="#FFDC76"/>
<stop offset="0.230769" stop-color="#FFAC69"/>
<stop offset="0.471154" stop-color="#FF7070"/>
<stop offset="1" stop-color="#2764FF"/>
</linearGradient>
</defs>
</svg>
