<svg width="399" height="77" viewBox="0 0 399 77" fill="none" xmlns="http://www.w3.org/2000/svg">
<g clip-path="url(#clip0_54_24)">
<path d="M100.72 58V51.52L103.36 51.28C104.907 51.12 105.68 50.3733 105.68 49.04V11.84L101.12 11.6V4.8H123.04C130.88 4.8 136.987 6.88 141.36 11.04C145.787 15.2 148 21.36 148 29.52C148 34.5867 147.333 39.0133 146 42.8C144.667 46.5333 142.853 49.4667 140.56 51.6C135.973 55.8667 130.267 58 123.44 58H100.72ZM115.44 12.56V50.32H123.6C128.187 50.32 131.76 48.6667 134.32 45.36C136.88 42.0533 138.16 37.2533 138.16 30.96C138.16 18.6933 132.96 12.56 122.56 12.56H115.44ZM183.283 56.48V50.4C180.35 54.56 176.03 56.64 170.323 56.64C162.056 56.64 157.923 52.0267 157.923 42.8V26.72C157.923 25.28 157.256 24.5333 155.923 24.48L153.363 24.32V17.76H167.443V40.72C167.443 43.5467 167.843 45.68 168.643 47.12C169.443 48.56 171.096 49.28 173.603 49.28C176.11 49.28 178.11 48.5067 179.603 46.96C181.15 45.4133 181.923 43.5467 181.923 41.36V26.88C181.923 25.9733 181.763 25.36 181.443 25.04C181.176 24.6667 180.67 24.48 179.923 24.48L177.363 24.32V17.76H191.443V56.48C191.443 62.9333 189.87 67.6533 186.723 70.64C183.63 73.6267 178.91 75.12 172.563 75.12C166.27 75.12 161.363 74.24 157.843 72.48V61.36L165.443 60.72V64.56C165.443 66 166.11 66.96 167.443 67.44C168.776 67.9733 170.616 68.24 172.963 68.24C179.843 68.24 183.283 64.32 183.283 56.48ZM199.223 24.16V17.76H212.743V22.96C214.129 20.9867 215.969 19.44 218.263 18.32C220.556 17.1467 223.036 16.56 225.703 16.56C229.756 16.56 232.876 17.7333 235.063 20.08C237.303 22.3733 238.423 25.84 238.423 30.48V51.36L242.983 51.6V58H223.943V51.92L226.583 51.68C227.383 51.5733 227.969 51.36 228.343 51.04C228.716 50.6667 228.903 50 228.903 49.04V32.56C228.903 29.6267 228.449 27.4667 227.543 26.08C226.636 24.64 224.903 23.92 222.343 23.92C219.836 23.92 217.836 24.72 216.343 26.32C214.849 27.92 214.103 29.8133 214.103 32V51.36L218.663 51.6V58H199.623V51.92L202.263 51.68C203.063 51.5733 203.649 51.36 204.023 51.04C204.396 50.6667 204.583 50 204.583 49.04V26.88C204.583 25.28 203.916 24.4533 202.583 24.4L199.223 24.16ZM283.591 19.36V49.12C283.591 49.9733 283.725 50.56 283.991 50.88C284.311 51.2 284.845 51.3867 285.591 51.44L288.151 51.6V58H275.431V53.36L275.191 53.28C272.525 57.12 268.871 59.04 264.231 59.04C258.791 59.04 254.765 57.3067 252.151 53.84C249.538 50.3733 248.231 45.6267 248.231 39.6C248.231 32.3467 249.991 26.6933 253.511 22.64C257.031 18.5867 262.311 16.56 269.351 16.56C273.885 16.56 278.631 17.4933 283.591 19.36ZM274.311 45.28V24.56C272.818 23.8667 270.765 23.52 268.151 23.52C264.578 23.52 261.991 24.96 260.391 27.84C258.791 30.72 257.991 34.5333 257.991 39.28C257.991 47.92 260.765 52.24 266.311 52.24C268.658 52.24 270.578 51.5467 272.071 50.16C273.565 48.72 274.311 47.0933 274.311 45.28ZM314.022 23.84C312.742 23.36 311.195 23.12 309.382 23.12C307.569 23.12 306.102 23.5467 304.982 24.4C303.915 25.2 303.382 26.2133 303.382 27.44C303.382 28.6133 303.569 29.5467 303.942 30.24C304.369 30.88 305.009 31.44 305.862 31.92C307.195 32.6133 308.795 33.2267 310.662 33.76C312.529 34.24 313.915 34.64 314.822 34.96C315.729 35.2267 316.849 35.7067 318.182 36.4C319.569 37.0933 320.609 37.84 321.302 38.64C323.169 40.6133 324.102 43.1467 324.102 46.24C324.102 50.24 322.635 53.3867 319.702 55.68C316.822 57.92 313.142 59.04 308.662 59.04C302.155 59.04 297.249 58.2133 293.942 56.56V45.44L301.142 44.88V48.72C301.142 51.0667 303.382 52.24 307.862 52.24C312.342 52.24 314.582 50.6133 314.582 47.36C314.582 46.1867 314.182 45.2267 313.382 44.48C312.635 43.7333 311.889 43.2267 311.142 42.96C310.395 42.6933 309.489 42.4267 308.422 42.16C307.409 41.8933 306.395 41.6267 305.382 41.36C304.422 41.0933 303.355 40.7467 302.182 40.32C301.062 39.84 299.809 39.1733 298.422 38.32C295.702 36.56 294.342 33.6267 294.342 29.52C294.342 25.36 295.809 22.16 298.742 19.92C301.675 17.68 305.355 16.56 309.782 16.56C314.262 16.56 318.689 17.6267 323.062 19.76V29.36L315.862 29.92V26.56C315.862 25.2267 315.249 24.32 314.022 23.84ZM337.254 9.28H342.454V17.76H353.094L352.294 24.48H342.454V45.52C342.454 47.8667 342.881 49.52 343.734 50.48C344.588 51.3867 345.894 51.84 347.654 51.84C349.468 51.84 351.281 51.28 353.094 50.16L355.494 56.32C352.828 58.1867 349.441 59.12 345.334 59.12C342.934 59.12 340.908 58.8 339.254 58.16C337.601 57.5733 336.374 56.9067 335.574 56.16C334.774 55.4133 334.161 54.32 333.734 52.88C333.308 51.44 333.068 50.32 333.014 49.52C332.961 48.6667 332.934 47.44 332.934 45.84V24.48H327.254L328.054 18.64C330.561 18.4267 332.454 17.5467 333.734 16C335.014 14.4 336.188 12.16 337.254 9.28ZM387.971 56.48V50.4C385.037 54.56 380.717 56.64 375.011 56.64C366.744 56.64 362.611 52.0267 362.611 42.8V26.72C362.611 25.28 361.944 24.5333 360.611 24.48L358.051 24.32V17.76H372.131V40.72C372.131 43.5467 372.531 45.68 373.331 47.12C374.131 48.56 375.784 49.28 378.291 49.28C380.797 49.28 382.797 48.5067 384.291 46.96C385.837 45.4133 386.611 43.5467 386.611 41.36V26.88C386.611 25.9733 386.451 25.36 386.131 25.04C385.864 24.6667 385.357 24.48 384.611 24.48L382.051 24.32V17.76H396.131V56.48C396.131 62.9333 394.557 67.6533 391.411 70.64C388.317 73.6267 383.597 75.12 377.251 75.12C370.957 75.12 366.051 74.24 362.531 72.48V61.36L370.131 60.72V64.56C370.131 66 370.797 66.96 372.131 67.44C373.464 67.9733 375.304 68.24 377.651 68.24C384.531 68.24 387.971 64.32 387.971 56.48Z" fill="#E0E1E5"/>
<g filter="url(#filter0_g_54_24)">
<g filter="url(#filter1_i_54_24)">
<path d="M80.4164 14.6537C79.4762 13.9408 78.3345 13.4823 77.1215 13.3306C75.9084 13.1789 74.6729 13.34 73.5557 13.7957L58.0355 20.0641L48.9431 5.19154C48.374 4.26064 47.5414 3.48497 46.5314 2.9449C45.5214 2.40483 44.3709 2.12003 43.1991 2.12C42.0272 2.11996 40.8767 2.40471 39.8667 2.94473C38.8567 3.48474 38.024 4.26038 37.4549 5.19124L28.3624 20.0641L12.839 13.7942C11.7211 13.3428 10.4867 13.184 9.27483 13.3356C8.06296 13.4872 6.92172 13.9432 5.9796 14.6523C5.03747 15.3614 4.33187 16.2953 3.94223 17.3491C3.5526 18.4028 3.49439 19.5345 3.77417 20.6166L12.1338 52.9598C12.3393 53.7425 12.7163 54.4794 13.2421 55.1268C13.7679 55.7742 14.4318 56.3187 15.1943 56.7278C15.9567 57.1369 16.802 57.4022 17.6798 57.508C18.5575 57.6138 19.4497 57.5578 20.3032 57.3434C35.2816 53.586 51.1002 53.5846 66.0794 57.3393C66.9325 57.5558 67.825 57.6134 68.7032 57.5087C69.5814 57.4039 70.4273 57.1391 71.19 56.7299C71.9528 56.3207 72.6167 55.7758 73.1419 55.1277C73.6672 54.4795 74.0429 53.7417 74.2465 52.9584L82.6209 20.6195C82.9057 19.5373 82.85 18.4042 82.4602 17.3493C82.0704 16.2945 81.3622 15.3604 80.4164 14.6537Z" fill="url(#paint0_linear_54_24)"/>
</g>
</g>
</g>
<defs>
<filter id="filter0_g_54_24" x="-1.296" y="-14.296" width="88.992" height="88.992" filterUnits="userSpaceOnUse" color-interpolation-filters="sRGB">
<feFlood flood-opacity="0" result="BackgroundImageFix"/>
<feBlend mode="normal" in="SourceGraphic" in2="BackgroundImageFix" result="shape"/>
<feTurbulence type="fractalNoise" baseFrequency="2.7777779102325439 2.7777779102325439" numOctaves="3" seed="4478" result="displacementX" />
<feTurbulence type="fractalNoise" baseFrequency="2.7777779102325439 2.7777779102325439" numOctaves="3" seed="4479" result="displacementY" />
<feColorMatrix in="displacementX" type="matrix" values="0 0 0 1 0  0 0 0 0 0  0 0 0 0 0  0 0 0 0 1" result="displacementXRed" />
<feColorMatrix in="displacementY" type="matrix" values="0 0 0 0 0  0 0 0 1 0  0 0 0 0 0  0 0 0 0 1" />
<feComposite in="displacementXRed" operator="arithmetic" k1="0" k2="1" k3="1" k4="0"/>
<feDisplacementMap in="shape" scale="2.5919997692108154" xChannelSelector="R" yChannelSelector="G" width="100%" height="100%" />
<feColorMatrix type="matrix" values="0 0 0 0 0  0 0 0 0 0  0 0 0 0 0  0 0 0 1 0" />
<feComponentTransfer result="sourceDisplacedAlpha">
<feFuncA type="gamma" exponent="0.2" />
</feComponentTransfer>
<feColorMatrix in="shape" type="matrix" values="0 0 0 0 0  0 0 0 0 0  0 0 0 0 0  0 0 0 1 0" />
<feComponentTransfer result="inputSourceAlpha">
<feFuncA type="gamma" exponent="0.2" />
</feComponentTransfer>
<feComposite in="sourceDisplacedAlpha" operator="arithmetic" k1="1" k2="0" k3="0" k4="0" result="displacementAlphasMultiplied"/>
<feComposite in="displacementAlphasMultiplied"  operator="arithmetic" k1="0" k2="0" k3="-0.5" k4="0.5" result="centeringAdjustment"/>
<feComposite in="displacementX" in2="displacementAlphasMultiplied" operator="arithmetic" k1="1" k2="0" k3="0" k4="0" />
<feComposite in="centeringAdjustment" operator="arithmetic" k1="0" k2="1" k3="1" k4="0" />
<feColorMatrix  type="matrix" values="0 0 0 1 0  0 0 0 0 0  0 0 0 0 0  0 0 0 0 1" result="displacementXFinal" />
<feComposite in="displacementY" in2="displacementAlphasMultiplied" operator="arithmetic" k1="1" k2="0" k3="0" k4="0" />
<feComposite in="centeringAdjustment" operator="arithmetic" k1="0" k2="1" k3="1" k4="0" />
<feColorMatrix  type="matrix" values="0 0 0 0 0  0 0 0 1 0  0 0 0 0 0  0 0 0 0 1" result="displacementYFinal" />
<feComposite in="displacementXFinal" in2="displacementYFinal" operator="arithmetic" k1="0" k2="1" k3="1" k4="0" />
<feComposite in2="displacementAlphasMultiplied" operator="in" result="displacementMap" />
<feFlood flood-color="rgb(127, 127, 127)" flood-opacity="1"/>
<feComposite in2="displacementAlphasMultiplied" operator="out" />
<feComposite in2="displacementMap" operator="over" result="displacementMapWithBg"/>
<feDisplacementMap in="shape" scale="2.5919997692108154" xChannelSelector="R" yChannelSelector="G" width="100%" height="100%" result="displacedImage" />
<feColorMatrix in="shape" type="matrix" values="1 0 0 0 0  0 1 0 0 0  0 0 1 0 0  0 0 0 127 0" result="imageOpaque" />
<feDisplacementMap in="imageOpaque" in2="displacementMapWithBg" scale="2.5919997692108154" xChannelSelector="R" yChannelSelector="G" width="100%" height="100%" result="displacedImageOpaque" />
<feColorMatrix in="displacedImage" type="matrix" values="0 0 0 1 0  0 0 0 0 0  0 0 0 0 0  0 0 0 127 0" result="displacedImageRed" />
<feColorMatrix in="shape" type="matrix" values="0 0 0 1 0  0 0 0 0 0  0 0 0 0 0  0 0 0 127 0" />
<feComposite in="displacedImageRed"  operator="atop" result="transparencyRedMap"/>
<feColorMatrix in="transparencyRedMap" type="matrix" values="0 0 0 0 0  0 0 0 0 0  0 0 0 0 0  1 0 0 0 0" result="transparencyAlphaMap" />
<feComposite in="displacedImageOpaque" in2="imageOpaque" operator="over" />
<feComposite in2="transparencyAlphaMap" operator="in" result="effect1_texture_54_24"/>
</filter>
<filter id="filter1_i_54_24" x="3.60001" y="2.12" width="79.2" height="55.44" filterUnits="userSpaceOnUse" color-interpolation-filters="sRGB">
<feFlood flood-opacity="0" result="BackgroundImageFix"/>
<feBlend mode="normal" in="SourceGraphic" in2="BackgroundImageFix" result="shape"/>
<feColorMatrix in="SourceAlpha" type="matrix" values="0 0 0 0 0 0 0 0 0 0 0 0 0 0 0 0 0 0 127 0" result="hardAlpha"/>
<feOffset/>
<feGaussianBlur stdDeviation="16.812"/>
<feComposite in2="hardAlpha" operator="arithmetic" k2="-1" k3="1"/>
<feColorMatrix type="matrix" values="0 0 0 0 1 0 0 0 0 1 0 0 0 0 1 0 0 0 0.26 0"/>
<feBlend mode="normal" in2="shape" result="effect1_innerShadow_54_24"/>
</filter>
<linearGradient id="paint0_linear_54_24" x1="3.60001" y1="14.5954" x2="76.0039" y2="57.56" gradientUnits="userSpaceOnUse">
<stop stop-color="#FFDC76"/>
<stop offset="0.230769" stop-color="#FFAC69"/>
<stop offset="0.471154" stop-color="#FF7070"/>
<stop offset="1" stop-color="#2764FF"/>
</linearGradient>
<clipPath id="clip0_54_24">
<rect width="399" height="77" fill="white"/>
</clipPath>
</defs>
</svg>
